<svg xmlns="http://www.w3.org/2000/svg" xmlns:xlink="http://www.w3.org/1999/xlink" width="400" zoomAndPan="magnify" viewBox="0 0 300 299.999988" height="400" preserveAspectRatio="xMidYMid meet" version="1.0"><defs><clipPath id="1a63671721"><path d="M 4.089844 0 L 295.839844 0 L 295.839844 300 L 4.089844 300 Z M 4.089844 0 " clip-rule="nonzero"/></clipPath></defs><g clip-path="url(#1a63671721)"><path fill="#ffffff" d="M 150.398438 299.542969 C 148.652344 299.550781 146.949219 299.28125 145.289062 298.734375 L 48.289062 266.398438 C 46.859375 265.921875 45.523438 265.257812 44.277344 264.410156 C 43.03125 263.558594 41.929688 262.550781 40.964844 261.390625 C 40 260.234375 39.214844 258.960938 38.609375 257.582031 C 38 256.203125 37.59375 254.765625 37.386719 253.273438 L 5.054688 18.855469 C 4.972656 18.285156 4.925781 17.710938 4.90625 17.136719 C 4.886719 16.558594 4.902344 15.984375 4.945312 15.410156 C 4.988281 14.835938 5.0625 14.265625 5.164062 13.699219 C 5.269531 13.132812 5.402344 12.570312 5.566406 12.019531 C 5.730469 11.46875 5.925781 10.925781 6.148438 10.394531 C 6.371094 9.863281 6.621094 9.34375 6.898438 8.839844 C 7.175781 8.332031 7.476562 7.84375 7.808594 7.371094 C 8.136719 6.898438 8.492188 6.445312 8.871094 6.011719 C 9.25 5.578125 9.648438 5.164062 10.070312 4.769531 C 10.492188 4.378906 10.9375 4.011719 11.398438 3.667969 C 11.859375 3.320312 12.339844 3.003906 12.835938 2.710938 C 13.332031 2.417969 13.839844 2.148438 14.367188 1.910156 C 14.890625 1.671875 15.425781 1.460938 15.972656 1.28125 C 16.519531 1.097656 17.074219 0.949219 17.636719 0.824219 C 18.199219 0.703125 18.769531 0.613281 19.34375 0.550781 C 19.914062 0.488281 20.488281 0.457031 21.066406 0.457031 L 279.734375 0.457031 C 280.308594 0.457031 280.882812 0.488281 281.453125 0.550781 C 282.027344 0.613281 282.59375 0.703125 283.15625 0.824219 C 283.71875 0.949219 284.273438 1.097656 284.820312 1.28125 C 285.367188 1.460938 285.902344 1.671875 286.425781 1.910156 C 286.949219 2.148438 287.460938 2.414062 287.957031 2.707031 C 288.453125 3 288.929688 3.316406 289.390625 3.664062 C 289.851562 4.007812 290.296875 4.375 290.71875 4.765625 C 291.140625 5.15625 291.539062 5.570312 291.917969 6.003906 C 292.296875 6.4375 292.652344 6.890625 292.980469 7.363281 C 293.308594 7.832031 293.613281 8.320312 293.890625 8.824219 C 294.167969 9.328125 294.417969 9.847656 294.640625 10.378906 C 294.863281 10.910156 295.058594 11.449219 295.222656 12.003906 C 295.386719 12.554688 295.523438 13.113281 295.625 13.679688 C 295.730469 14.246094 295.804688 14.816406 295.851562 15.390625 C 295.894531 15.964844 295.90625 16.539062 295.890625 17.113281 C 295.871094 17.6875 295.824219 18.261719 295.746094 18.832031 L 263.414062 253.25 C 263.207031 254.746094 262.804688 256.183594 262.195312 257.566406 C 261.589844 258.949219 260.804688 260.21875 259.839844 261.382812 C 258.875 262.542969 257.769531 263.550781 256.523438 264.40625 C 255.28125 265.257812 253.941406 265.921875 252.507812 266.398438 L 155.507812 298.734375 C 153.847656 299.28125 152.144531 299.550781 150.398438 299.542969 Z M 68.046875 238.917969 L 150.398438 266.335938 L 232.753906 238.851562 L 261.179688 32.792969 L 39.65625 32.792969 Z M 68.046875 238.917969 " fill-opacity="1" fill-rule="nonzero"/></g><path fill="#ffffff" d="M 150.398438 230.832031 C 148.816406 230.832031 147.269531 230.605469 145.75 230.15625 L 105.335938 218.03125 C 103.929688 217.609375 102.609375 217.007812 101.367188 216.226562 C 100.128906 215.445312 99.011719 214.511719 98.027344 213.425781 C 97.039062 212.34375 96.214844 211.144531 95.554688 209.835938 C 94.894531 208.527344 94.417969 207.15625 94.132812 205.71875 L 92.515625 197.636719 C 92.3125 196.625 92.210938 195.605469 92.203125 194.578125 C 92.195312 193.546875 92.285156 192.527344 92.476562 191.515625 C 92.664062 190.503906 92.945312 189.519531 93.320312 188.558594 C 93.699219 187.601562 94.164062 186.6875 94.714844 185.816406 C 95.265625 184.949219 95.890625 184.140625 96.597656 183.390625 C 97.304688 182.640625 98.074219 181.964844 98.910156 181.363281 C 99.742188 180.757812 100.628906 180.242188 101.5625 179.808594 C 102.496094 179.375 103.460938 179.035156 104.460938 178.785156 C 105.460938 178.535156 106.472656 178.382812 107.5 178.328125 C 108.527344 178.273438 109.550781 178.316406 110.570312 178.457031 C 111.589844 178.597656 112.589844 178.832031 113.5625 179.164062 C 114.539062 179.492188 115.472656 179.914062 116.367188 180.421875 C 117.261719 180.933594 118.101562 181.523438 118.882812 182.191406 C 119.664062 182.859375 120.375 183.597656 121.015625 184.402344 C 121.660156 185.207031 122.21875 186.066406 122.695312 186.980469 C 123.171875 187.890625 123.558594 188.839844 123.855469 189.828125 L 150.398438 197.789062 L 176.265625 190.027344 L 180.257812 162.125 L 134.234375 162.125 C 133.414062 162.128906 132.601562 162.070312 131.792969 161.949219 C 130.984375 161.828125 130.191406 161.644531 129.410156 161.40625 C 128.628906 161.164062 127.871094 160.863281 127.136719 160.507812 C 126.402344 160.152344 125.695312 159.742188 125.023438 159.277344 C 124.347656 158.816406 123.714844 158.304688 123.117188 157.746094 C 122.523438 157.1875 121.972656 156.585938 121.46875 155.941406 C 120.964844 155.300781 120.507812 154.621094 120.109375 153.910156 C 119.707031 153.199219 119.359375 152.460938 119.070312 151.699219 C 118.777344 150.933594 118.546875 150.152344 118.375 149.351562 C 118.207031 148.554688 118.09375 147.746094 118.046875 146.929688 C 117.996094 146.113281 118.007812 145.300781 118.082031 144.484375 C 118.15625 143.671875 118.292969 142.867188 118.488281 142.074219 C 118.6875 141.28125 118.941406 140.507812 119.253906 139.753906 C 119.570312 139 119.9375 138.273438 120.359375 137.574219 C 120.785156 136.875 121.257812 136.210938 121.785156 135.585938 C 122.308594 134.957031 122.878906 134.375 123.488281 133.832031 L 164.464844 97.457031 L 93.816406 97.457031 C 93.285156 97.457031 92.757812 97.433594 92.230469 97.378906 C 91.703125 97.328125 91.179688 97.25 90.660156 97.148438 C 90.144531 97.042969 89.628906 96.914062 89.125 96.761719 C 88.617188 96.609375 88.117188 96.429688 87.628906 96.226562 C 87.140625 96.023438 86.660156 95.800781 86.195312 95.550781 C 85.726562 95.300781 85.273438 95.027344 84.835938 94.734375 C 84.394531 94.441406 83.96875 94.125 83.558594 93.789062 C 83.152344 93.453125 82.757812 93.097656 82.382812 92.722656 C 82.011719 92.347656 81.65625 91.957031 81.320312 91.546875 C 80.984375 91.136719 80.667969 90.714844 80.375 90.273438 C 80.078125 89.832031 79.808594 89.378906 79.558594 88.914062 C 79.308594 88.445312 79.082031 87.96875 78.878906 87.476562 C 78.675781 86.988281 78.5 86.492188 78.34375 85.984375 C 78.191406 85.476562 78.0625 84.964844 77.960938 84.445312 C 77.855469 83.925781 77.777344 83.402344 77.726562 82.875 C 77.675781 82.347656 77.648438 81.820312 77.648438 81.292969 C 77.648438 80.761719 77.675781 80.234375 77.726562 79.707031 C 77.777344 79.179688 77.855469 78.65625 77.960938 78.136719 C 78.0625 77.617188 78.191406 77.105469 78.34375 76.597656 C 78.5 76.09375 78.675781 75.59375 78.878906 75.105469 C 79.082031 74.617188 79.308594 74.136719 79.558594 73.671875 C 79.808594 73.203125 80.078125 72.75 80.375 72.308594 C 80.667969 71.871094 80.984375 71.445312 81.320312 71.035156 C 81.65625 70.625 82.011719 70.234375 82.382812 69.859375 C 82.757812 69.484375 83.152344 69.128906 83.558594 68.792969 C 83.96875 68.457031 84.394531 68.144531 84.835938 67.847656 C 85.273438 67.554688 85.726562 67.285156 86.195312 67.035156 C 86.660156 66.785156 87.140625 66.558594 87.628906 66.355469 C 88.117188 66.152344 88.617188 65.976562 89.125 65.820312 C 89.628906 65.667969 90.144531 65.539062 90.660156 65.4375 C 91.179688 65.332031 91.703125 65.253906 92.230469 65.203125 C 92.757812 65.152344 93.285156 65.125 93.816406 65.125 L 206.984375 65.125 C 207.800781 65.121094 208.613281 65.179688 209.421875 65.300781 C 210.230469 65.421875 211.023438 65.605469 211.804688 65.84375 C 212.585938 66.085938 213.34375 66.386719 214.078125 66.742188 C 214.816406 67.097656 215.519531 67.507812 216.191406 67.96875 C 216.867188 68.433594 217.5 68.945312 218.097656 69.503906 C 218.691406 70.0625 219.242188 70.664062 219.746094 71.308594 C 220.253906 71.949219 220.707031 72.628906 221.109375 73.339844 C 221.511719 74.050781 221.855469 74.789062 222.144531 75.550781 C 222.4375 76.316406 222.667969 77.097656 222.839844 77.898438 C 223.011719 78.695312 223.121094 79.503906 223.167969 80.320312 C 223.21875 81.136719 223.207031 81.949219 223.132812 82.765625 C 223.058594 83.578125 222.921875 84.382812 222.726562 85.175781 C 222.53125 85.96875 222.273438 86.742188 221.960938 87.496094 C 221.648438 88.25 221.277344 88.976562 220.855469 89.675781 C 220.429688 90.375 219.957031 91.039062 219.429688 91.664062 C 218.90625 92.292969 218.339844 92.875 217.726562 93.417969 L 176.75 129.792969 L 198.898438 129.792969 C 199.476562 129.792969 200.050781 129.824219 200.625 129.882812 C 201.199219 129.945312 201.769531 130.039062 202.335938 130.160156 C 202.898438 130.285156 203.453125 130.4375 204.003906 130.617188 C 204.550781 130.800781 205.085938 131.011719 205.613281 131.25 C 206.136719 131.492188 206.648438 131.757812 207.144531 132.050781 C 207.640625 132.347656 208.121094 132.667969 208.585938 133.011719 C 209.046875 133.359375 209.488281 133.726562 209.910156 134.121094 C 210.335938 134.515625 210.734375 134.929688 211.113281 135.367188 C 211.492188 135.800781 211.847656 136.257812 212.175781 136.730469 C 212.503906 137.207031 212.808594 137.695312 213.085938 138.203125 C 213.363281 138.710938 213.613281 139.230469 213.832031 139.761719 C 214.054688 140.296875 214.246094 140.839844 214.410156 141.394531 C 214.574219 141.949219 214.707031 142.507812 214.808594 143.078125 C 214.910156 143.644531 214.984375 144.21875 215.023438 144.792969 C 215.066406 145.371094 215.078125 145.945312 215.058594 146.523438 C 215.035156 147.101562 214.984375 147.675781 214.90625 148.246094 L 206.820312 204.828125 C 206.601562 206.355469 206.175781 207.824219 205.539062 209.226562 C 204.898438 210.632812 204.078125 211.917969 203.070312 213.089844 C 202.066406 214.257812 200.914062 215.261719 199.621094 216.105469 C 198.328125 216.945312 196.941406 217.585938 195.464844 218.03125 L 155.046875 230.15625 C 153.53125 230.605469 151.980469 230.832031 150.398438 230.832031 Z M 150.398438 230.832031 " fill-opacity="1" fill-rule="nonzero"/></svg>