<svg xmlns="http://www.w3.org/2000/svg" xmlns:xlink="http://www.w3.org/1999/xlink" width="400" zoomAndPan="magnify" viewBox="0 0 300 299.999988" height="400" preserveAspectRatio="xMidYMid meet" version="1.0"><defs><clipPath id="3b56280894"><path d="M 4.089844 0 L 295.839844 0 L 295.839844 300 L 4.089844 300 Z M 4.089844 0 " clip-rule="nonzero"/></clipPath></defs><g clip-path="url(#3b56280894)"><path fill="#e9ff9a" d="M 150.398438 299.542969 C 148.652344 299.550781 146.949219 299.28125 145.289062 298.734375 L 48.289062 266.398438 C 46.859375 265.921875 45.523438 265.257812 44.277344 264.410156 C 43.03125 263.558594 41.929688 262.550781 40.964844 261.390625 C 40 260.234375 39.214844 258.960938 38.609375 257.582031 C 38 256.203125 37.59375 254.765625 37.386719 253.273438 L 5.054688 18.855469 C 4.972656 18.285156 4.925781 17.710938 4.90625 17.136719 C 4.886719 16.558594 4.902344 15.984375 4.945312 15.410156 C 4.988281 14.835938 5.0625 14.265625 5.164062 13.699219 C 5.269531 13.132812 5.402344 12.570312 5.566406 12.019531 C 5.730469 11.46875 5.925781 10.925781 6.148438 10.394531 C 6.371094 9.863281 6.621094 9.34375 6.898438 8.839844 C 7.175781 8.332031 7.476562 7.84375 7.808594 7.371094 C 8.136719 6.898438 8.492188 6.445312 8.871094 6.011719 C 9.25 5.578125 9.648438 5.164062 10.070312 4.769531 C 10.492188 4.378906 10.9375 4.011719 11.398438 3.667969 C 11.859375 3.320312 12.339844 3.003906 12.835938 2.710938 C 13.332031 2.417969 13.839844 2.148438 14.367188 1.910156 C 14.890625 1.671875 15.425781 1.460938 15.972656 1.28125 C 16.519531 1.097656 17.074219 0.949219 17.636719 0.824219 C 18.199219 0.703125 18.769531 0.613281 19.34375 0.550781 C 19.914062 0.488281 20.488281 0.457031 21.066406 0.457031 L 279.734375 0.457031 C 280.308594 0.457031 280.882812 0.488281 281.453125 0.550781 C 282.027344 0.613281 282.59375 0.703125 283.15625 0.824219 C 283.71875 0.949219 284.273438 1.097656 284.820312 1.28125 C 285.367188 1.460938 285.902344 1.671875 286.425781 1.910156 C 286.949219 2.148438 287.460938 2.414062 287.957031 2.707031 C 288.453125 3 288.929688 3.316406 289.390625 3.664062 C 289.851562 4.007812 290.296875 4.375 290.71875 4.765625 C 291.140625 5.15625 291.539062 5.570312 291.917969 6.003906 C 292.296875 6.4375 292.652344 6.890625 292.980469 7.363281 C 293.308594 7.832031 293.613281 8.320312 293.890625 8.824219 C 294.167969 9.328125 294.417969 9.847656 294.640625 10.378906 C 294.863281 10.910156 295.058594 11.449219 295.222656 12.003906 C 295.386719 12.554688 295.523438 13.113281 295.625 13.679688 C 295.730469 14.246094 295.804688 14.816406 295.851562 15.390625 C 295.894531 15.964844 295.90625 16.539062 295.890625 17.113281 C 295.871094 17.6875 295.824219 18.261719 295.746094 18.832031 L 263.414062 253.25 C 263.207031 254.746094 262.804688 256.183594 262.195312 257.566406 C 261.589844 258.949219 260.804688 260.21875 259.839844 261.382812 C 258.875 262.542969 257.769531 263.550781 256.523438 264.40625 C 255.28125 265.257812 253.941406 265.921875 252.507812 266.398438 L 155.507812 298.734375 C 153.847656 299.28125 152.144531 299.550781 150.398438 299.542969 Z M 68.046875 238.917969 L 150.398438 266.335938 L 232.753906 238.851562 L 261.179688 32.792969 L 39.65625 32.792969 Z M 68.046875 238.917969 " fill-opacity="1" fill-rule="nonzero"/></g><path fill="#e9ff9a" d="M 150.398438 230.832031 C 148.816406 230.832031 147.269531 230.605469 145.75 230.15625 L 105.335938 218.03125 C 103.929688 217.609375 102.609375 217.007812 101.367188 216.226562 C 100.128906 215.445312 99.011719 214.511719 98.027344 213.425781 C 97.039062 212.34375 96.214844 211.144531 95.554688 209.835938 C 94.894531 208.527344 94.417969 207.15625 94.132812 205.71875 L 92.515625 197.636719 C 92.3125 196.625 92.210938 195.605469 92.203125 194.578125 C 92.195312 193.546875 92.285156 192.527344 92.476562 191.515625 C 92.664062 190.503906 92.945312 189.519531 93.320312 188.558594 C 93.699219 187.601562 94.164062 186.6875 94.714844 185.816406 C 95.265625 184.949219 95.890625 184.140625 96.597656 183.390625 C 97.304688 182.640625 98.074219 181.964844 98.910156 181.363281 C 99.742188 180.757812 100.628906 180.242188 101.5625 179.808594 C 102.496094 179.375 103.460938 179.035156 104.460938 178.785156 C 105.460938 178.535156 106.472656 178.382812 107.5 178.328125 C 108.527344 178.273438 109.550781 178.316406 110.570312 178.457031 C 111.589844 178.597656 112.589844 178.832031 113.5625 179.164062 C 114.539062 179.492188 115.472656 179.914062 116.367188 180.421875 C 117.261719 180.933594 118.101562 181.523438 118.882812 182.191406 C 119.664062 182.859375 120.375 183.597656 121.015625 184.402344 C 121.660156 185.207031 122.21875 186.066406 122.695312 186.980469 C 123.171875 187.890625 123.558594 188.839844 123.855469 189.828125 L 150.398438 197.789062 L 176.265625 190.027344 L 180.257812 162.125 L 101.898438 162.125 C 100.921875 162.125 99.953125 162.035156 98.992188 161.859375 C 98.03125 161.683594 97.09375 161.425781 96.179688 161.078125 C 95.265625 160.730469 94.390625 160.308594 93.554688 159.804688 C 92.71875 159.296875 91.933594 158.722656 91.203125 158.078125 C 90.46875 157.429688 89.800781 156.722656 89.199219 155.953125 C 88.59375 155.1875 88.0625 154.371094 87.609375 153.507812 C 87.152344 152.644531 86.777344 151.746094 86.484375 150.816406 C 86.191406 149.882812 85.984375 148.933594 85.863281 147.964844 L 77.777344 83.296875 C 77.707031 82.730469 77.667969 82.160156 77.65625 81.589844 C 77.644531 81.019531 77.664062 80.449219 77.714844 79.878906 C 77.765625 79.308594 77.84375 78.742188 77.957031 78.183594 C 78.066406 77.621094 78.203125 77.070312 78.371094 76.523438 C 78.542969 75.976562 78.738281 75.441406 78.964844 74.917969 C 79.1875 74.390625 79.441406 73.878906 79.722656 73.382812 C 80 72.882812 80.304688 72.402344 80.636719 71.933594 C 80.96875 71.46875 81.320312 71.023438 81.699219 70.59375 C 82.078125 70.164062 82.476562 69.757812 82.898438 69.371094 C 83.320312 68.984375 83.761719 68.625 84.21875 68.285156 C 84.679688 67.945312 85.15625 67.632812 85.648438 67.34375 C 86.140625 67.054688 86.648438 66.792969 87.167969 66.554688 C 87.691406 66.320312 88.222656 66.113281 88.765625 65.9375 C 89.308594 65.757812 89.859375 65.609375 90.417969 65.488281 C 90.976562 65.367188 91.539062 65.277344 92.105469 65.214844 C 92.675781 65.15625 93.246094 65.125 93.816406 65.125 L 206.984375 65.125 C 207.511719 65.125 208.039062 65.152344 208.566406 65.203125 C 209.09375 65.253906 209.617188 65.332031 210.136719 65.4375 C 210.65625 65.539062 211.167969 65.667969 211.675781 65.820312 C 212.183594 65.976562 212.679688 66.152344 213.167969 66.355469 C 213.660156 66.558594 214.136719 66.785156 214.605469 67.035156 C 215.070312 67.285156 215.523438 67.554688 215.964844 67.847656 C 216.40625 68.144531 216.828125 68.457031 217.238281 68.792969 C 217.648438 69.128906 218.039062 69.484375 218.414062 69.859375 C 218.789062 70.234375 219.144531 70.625 219.480469 71.035156 C 219.816406 71.445312 220.128906 71.871094 220.425781 72.308594 C 220.71875 72.75 220.992188 73.203125 221.242188 73.671875 C 221.488281 74.136719 221.714844 74.617188 221.917969 75.105469 C 222.121094 75.59375 222.300781 76.09375 222.453125 76.597656 C 222.605469 77.105469 222.734375 77.617188 222.839844 78.136719 C 222.941406 78.65625 223.019531 79.179688 223.070312 79.707031 C 223.125 80.234375 223.148438 80.761719 223.148438 81.292969 C 223.148438 81.820312 223.125 82.347656 223.070312 82.875 C 223.019531 83.402344 222.941406 83.925781 222.839844 84.445312 C 222.734375 84.964844 222.605469 85.476562 222.453125 85.984375 C 222.300781 86.492188 222.121094 86.988281 221.917969 87.476562 C 221.714844 87.96875 221.488281 88.445312 221.242188 88.914062 C 220.992188 89.378906 220.71875 89.832031 220.425781 90.273438 C 220.128906 90.714844 219.816406 91.136719 219.480469 91.546875 C 219.144531 91.957031 218.789062 92.347656 218.414062 92.722656 C 218.039062 93.097656 217.648438 93.453125 217.238281 93.789062 C 216.828125 94.125 216.40625 94.441406 215.964844 94.734375 C 215.523438 95.027344 215.070312 95.300781 214.605469 95.550781 C 214.136719 95.800781 213.660156 96.023438 213.167969 96.226562 C 212.679688 96.429688 212.183594 96.609375 211.675781 96.761719 C 211.167969 96.914062 210.65625 97.042969 210.136719 97.148438 C 209.617188 97.25 209.09375 97.328125 208.566406 97.378906 C 208.039062 97.433594 207.511719 97.457031 206.984375 97.457031 L 112.132812 97.457031 L 116.175781 129.792969 L 198.898438 129.792969 C 199.476562 129.792969 200.050781 129.824219 200.625 129.882812 C 201.199219 129.945312 201.769531 130.039062 202.335938 130.160156 C 202.898438 130.285156 203.453125 130.4375 204.003906 130.617188 C 204.550781 130.800781 205.085938 131.011719 205.613281 131.25 C 206.136719 131.492188 206.648438 131.757812 207.144531 132.050781 C 207.640625 132.347656 208.121094 132.667969 208.585938 133.011719 C 209.046875 133.359375 209.488281 133.726562 209.910156 134.121094 C 210.335938 134.515625 210.734375 134.929688 211.113281 135.367188 C 211.492188 135.800781 211.847656 136.257812 212.175781 136.730469 C 212.503906 137.207031 212.808594 137.695312 213.085938 138.203125 C 213.363281 138.710938 213.613281 139.230469 213.832031 139.761719 C 214.054688 140.296875 214.246094 140.839844 214.410156 141.394531 C 214.574219 141.949219 214.707031 142.507812 214.808594 143.078125 C 214.910156 143.644531 214.984375 144.21875 215.023438 144.792969 C 215.066406 145.371094 215.078125 145.945312 215.058594 146.523438 C 215.035156 147.101562 214.984375 147.675781 214.90625 148.246094 L 206.820312 204.828125 C 206.601562 206.355469 206.175781 207.824219 205.539062 209.226562 C 204.898438 210.632812 204.078125 211.917969 203.070312 213.089844 C 202.066406 214.257812 200.914062 215.261719 199.621094 216.105469 C 198.328125 216.945312 196.941406 217.585938 195.464844 218.03125 L 155.046875 230.15625 C 153.53125 230.605469 151.980469 230.832031 150.398438 230.832031 Z M 150.398438 230.832031 " fill-opacity="1" fill-rule="nonzero"/></svg>