<svg xmlns="http://www.w3.org/2000/svg" xmlns:xlink="http://www.w3.org/1999/xlink" width="400" zoomAndPan="magnify" viewBox="0 0 300 299.999988" height="400" preserveAspectRatio="xMidYMid meet" version="1.0"><defs><clipPath id="295f8dd965"><path d="M 4.089844 0 L 295.839844 0 L 295.839844 300 L 4.089844 300 Z M 4.089844 0 " clip-rule="nonzero"/></clipPath></defs><g clip-path="url(#295f8dd965)"><path fill="#e9ff9a" d="M 150.398438 299.542969 C 148.652344 299.550781 146.949219 299.28125 145.289062 298.734375 L 48.289062 266.398438 C 46.859375 265.921875 45.523438 265.257812 44.277344 264.410156 C 43.03125 263.558594 41.929688 262.550781 40.964844 261.390625 C 40 260.234375 39.214844 258.960938 38.609375 257.582031 C 38 256.203125 37.59375 254.765625 37.386719 253.273438 L 5.054688 18.855469 C 4.972656 18.285156 4.925781 17.710938 4.90625 17.136719 C 4.886719 16.558594 4.902344 15.984375 4.945312 15.410156 C 4.988281 14.835938 5.0625 14.265625 5.164062 13.699219 C 5.269531 13.132812 5.402344 12.570312 5.566406 12.019531 C 5.730469 11.46875 5.925781 10.925781 6.148438 10.394531 C 6.371094 9.863281 6.621094 9.34375 6.898438 8.839844 C 7.175781 8.332031 7.476562 7.84375 7.808594 7.371094 C 8.136719 6.898438 8.492188 6.445312 8.871094 6.011719 C 9.25 5.578125 9.648438 5.164062 10.070312 4.769531 C 10.492188 4.378906 10.9375 4.011719 11.398438 3.667969 C 11.859375 3.320312 12.339844 3.003906 12.835938 2.710938 C 13.332031 2.417969 13.839844 2.148438 14.367188 1.910156 C 14.890625 1.671875 15.425781 1.460938 15.972656 1.28125 C 16.519531 1.097656 17.074219 0.949219 17.636719 0.824219 C 18.199219 0.703125 18.769531 0.613281 19.34375 0.550781 C 19.914062 0.488281 20.488281 0.457031 21.066406 0.457031 L 279.734375 0.457031 C 280.308594 0.457031 280.882812 0.488281 281.453125 0.550781 C 282.027344 0.613281 282.59375 0.703125 283.15625 0.824219 C 283.71875 0.949219 284.273438 1.097656 284.820312 1.28125 C 285.367188 1.460938 285.902344 1.671875 286.425781 1.910156 C 286.949219 2.148438 287.460938 2.414062 287.957031 2.707031 C 288.453125 3 288.929688 3.316406 289.390625 3.664062 C 289.851562 4.007812 290.296875 4.375 290.71875 4.765625 C 291.140625 5.15625 291.539062 5.570312 291.917969 6.003906 C 292.296875 6.4375 292.652344 6.890625 292.980469 7.363281 C 293.308594 7.832031 293.613281 8.320312 293.890625 8.824219 C 294.167969 9.328125 294.417969 9.847656 294.640625 10.378906 C 294.863281 10.910156 295.058594 11.449219 295.222656 12.003906 C 295.386719 12.554688 295.523438 13.113281 295.625 13.679688 C 295.730469 14.246094 295.804688 14.816406 295.851562 15.390625 C 295.894531 15.964844 295.90625 16.539062 295.890625 17.113281 C 295.871094 17.6875 295.824219 18.261719 295.746094 18.832031 L 263.414062 253.25 C 263.207031 254.746094 262.804688 256.183594 262.195312 257.566406 C 261.589844 258.949219 260.804688 260.21875 259.839844 261.382812 C 258.875 262.542969 257.769531 263.550781 256.523438 264.40625 C 255.28125 265.257812 253.941406 265.921875 252.507812 266.398438 L 155.507812 298.734375 C 153.847656 299.28125 152.144531 299.550781 150.398438 299.542969 Z M 68.046875 238.917969 L 150.398438 266.335938 L 232.753906 238.851562 L 261.179688 32.792969 L 39.65625 32.792969 Z M 68.046875 238.917969 " fill-opacity="1" fill-rule="nonzero"/></g><path fill="#e9ff9a" d="M 126.148438 226.792969 C 123.605469 226.792969 121.191406 226.222656 118.914062 225.085938 L 86.582031 208.917969 C 86.105469 208.683594 85.644531 208.421875 85.199219 208.140625 C 84.75 207.859375 84.316406 207.554688 83.898438 207.230469 C 83.476562 206.90625 83.074219 206.5625 82.691406 206.199219 C 82.304688 205.832031 81.941406 205.453125 81.59375 205.050781 C 81.246094 204.652344 80.917969 204.234375 80.613281 203.804688 C 80.304688 203.371094 80.023438 202.925781 79.757812 202.464844 C 79.496094 202.003906 79.257812 201.53125 79.042969 201.046875 C 78.824219 200.5625 78.632812 200.070312 78.464844 199.570312 C 78.296875 199.066406 78.15625 198.554688 78.039062 198.039062 C 77.921875 197.523438 77.828125 197 77.761719 196.476562 C 77.695312 195.949219 77.65625 195.421875 77.640625 194.894531 C 77.625 194.363281 77.636719 193.835938 77.675781 193.304688 C 77.714844 192.777344 77.777344 192.253906 77.867188 191.730469 C 77.957031 191.207031 78.070312 190.691406 78.210938 190.179688 C 78.351562 189.667969 78.515625 189.164062 78.703125 188.671875 C 78.894531 188.175781 79.105469 187.691406 79.34375 187.21875 C 79.582031 186.746094 79.839844 186.285156 80.121094 185.835938 C 80.40625 185.386719 80.707031 184.953125 81.035156 184.535156 C 81.359375 184.117188 81.703125 183.714844 82.066406 183.332031 C 82.433594 182.945312 82.816406 182.578125 83.214844 182.234375 C 83.617188 181.886719 84.03125 181.558594 84.464844 181.253906 C 84.898438 180.945312 85.34375 180.664062 85.804688 180.402344 C 86.265625 180.140625 86.738281 179.898438 87.222656 179.683594 C 87.703125 179.46875 88.199219 179.277344 88.699219 179.109375 C 89.203125 178.941406 89.714844 178.800781 90.230469 178.683594 C 90.746094 178.566406 91.269531 178.472656 91.792969 178.410156 C 92.320312 178.34375 92.847656 178.300781 93.375 178.289062 C 93.90625 178.273438 94.433594 178.285156 94.964844 178.324219 C 95.492188 178.363281 96.019531 178.425781 96.539062 178.515625 C 97.0625 178.605469 97.578125 178.71875 98.089844 178.859375 C 98.601562 179 99.101562 179.167969 99.597656 179.355469 C 100.09375 179.546875 100.578125 179.761719 101.050781 179.996094 L 109.984375 184.46875 L 109.984375 97.457031 L 77.648438 97.457031 C 77.121094 97.457031 76.589844 97.433594 76.066406 97.378906 C 75.539062 97.328125 75.015625 97.25 74.496094 97.148438 C 73.976562 97.042969 73.464844 96.914062 72.957031 96.761719 C 72.449219 96.609375 71.953125 96.429688 71.460938 96.226562 C 70.972656 96.023438 70.496094 95.800781 70.027344 95.550781 C 69.5625 95.300781 69.109375 95.027344 68.667969 94.734375 C 68.226562 94.441406 67.800781 94.125 67.394531 93.789062 C 66.984375 93.453125 66.59375 93.097656 66.21875 92.722656 C 65.84375 92.347656 65.488281 91.957031 65.152344 91.546875 C 64.816406 91.136719 64.5 90.714844 64.207031 90.273438 C 63.914062 89.832031 63.640625 89.378906 63.390625 88.914062 C 63.140625 88.445312 62.914062 87.96875 62.714844 87.476562 C 62.511719 86.988281 62.332031 86.492188 62.179688 85.984375 C 62.023438 85.476562 61.898438 84.964844 61.792969 84.445312 C 61.691406 83.925781 61.613281 83.402344 61.558594 82.875 C 61.507812 82.347656 61.484375 81.820312 61.484375 81.292969 C 61.484375 80.761719 61.507812 80.234375 61.558594 79.707031 C 61.613281 79.179688 61.691406 78.65625 61.792969 78.136719 C 61.898438 77.617188 62.023438 77.105469 62.179688 76.597656 C 62.332031 76.09375 62.511719 75.59375 62.714844 75.105469 C 62.914062 74.617188 63.140625 74.136719 63.390625 73.671875 C 63.640625 73.203125 63.914062 72.75 64.207031 72.308594 C 64.5 71.871094 64.816406 71.445312 65.152344 71.035156 C 65.488281 70.625 65.84375 70.234375 66.21875 69.859375 C 66.59375 69.484375 66.984375 69.128906 67.394531 68.792969 C 67.800781 68.457031 68.226562 68.144531 68.667969 67.847656 C 69.109375 67.554688 69.5625 67.285156 70.027344 67.035156 C 70.496094 66.785156 70.972656 66.558594 71.460938 66.355469 C 71.953125 66.152344 72.449219 65.976562 72.957031 65.820312 C 73.464844 65.667969 73.976562 65.539062 74.496094 65.4375 C 75.015625 65.332031 75.539062 65.253906 76.066406 65.203125 C 76.589844 65.152344 77.121094 65.125 77.648438 65.125 L 126.148438 65.125 C 126.679688 65.125 127.207031 65.152344 127.734375 65.203125 C 128.261719 65.253906 128.785156 65.332031 129.304688 65.4375 C 129.824219 65.539062 130.335938 65.667969 130.84375 65.820312 C 131.347656 65.976562 131.847656 66.152344 132.335938 66.355469 C 132.824219 66.558594 133.304688 66.785156 133.769531 67.035156 C 134.238281 67.285156 134.691406 67.554688 135.132812 67.847656 C 135.570312 68.144531 135.996094 68.457031 136.40625 68.792969 C 136.816406 69.128906 137.207031 69.484375 137.582031 69.859375 C 137.957031 70.234375 138.308594 70.625 138.644531 71.035156 C 138.980469 71.445312 139.296875 71.871094 139.589844 72.308594 C 139.886719 72.75 140.15625 73.203125 140.40625 73.671875 C 140.65625 74.136719 140.882812 74.617188 141.085938 75.105469 C 141.289062 75.59375 141.464844 76.09375 141.621094 76.597656 C 141.773438 77.105469 141.902344 77.617188 142.003906 78.136719 C 142.109375 78.65625 142.1875 79.179688 142.238281 79.707031 C 142.289062 80.234375 142.316406 80.761719 142.316406 81.292969 L 142.316406 210.625 C 142.316406 211.15625 142.289062 211.683594 142.238281 212.210938 C 142.1875 212.738281 142.109375 213.257812 142.003906 213.777344 C 141.902344 214.296875 141.773438 214.8125 141.621094 215.316406 C 141.464844 215.824219 141.289062 216.324219 141.085938 216.8125 C 140.882812 217.300781 140.65625 217.777344 140.40625 218.246094 C 140.15625 218.714844 139.886719 219.167969 139.589844 219.605469 C 139.296875 220.046875 138.980469 220.472656 138.644531 220.882812 C 138.308594 221.289062 137.957031 221.683594 137.582031 222.054688 C 137.207031 222.429688 136.816406 222.785156 136.40625 223.121094 C 135.996094 223.457031 135.570312 223.773438 135.132812 224.066406 C 134.691406 224.359375 134.238281 224.632812 133.769531 224.882812 C 133.304688 225.132812 132.824219 225.359375 132.335938 225.5625 C 131.847656 225.765625 131.347656 225.941406 130.84375 226.09375 C 130.335938 226.25 129.824219 226.378906 129.304688 226.480469 C 128.785156 226.585938 128.261719 226.660156 127.734375 226.714844 C 127.207031 226.765625 126.679688 226.792969 126.148438 226.792969 Z M 126.148438 226.792969 " fill-opacity="1" fill-rule="nonzero"/><path fill="#e9ff9a" d="M 174.648438 226.792969 C 173.671875 226.789062 172.703125 226.703125 171.742188 226.523438 C 170.777344 226.347656 169.839844 226.085938 168.925781 225.738281 C 168.011719 225.390625 167.136719 224.964844 166.300781 224.457031 C 165.464844 223.953125 164.679688 223.375 163.949219 222.726562 C 163.214844 222.078125 162.550781 221.371094 161.945312 220.601562 C 161.34375 219.832031 160.8125 219.015625 160.359375 218.148438 C 159.902344 217.285156 159.53125 216.382812 159.238281 215.453125 C 158.945312 214.519531 158.742188 213.566406 158.621094 212.597656 C 158.5 211.625 158.472656 210.652344 158.527344 209.675781 C 158.585938 208.699219 158.730469 207.738281 158.960938 206.789062 C 159.195312 205.839844 159.511719 204.917969 159.910156 204.023438 C 160.308594 203.132812 160.785156 202.28125 161.339844 201.476562 C 161.890625 200.671875 162.511719 199.921875 163.203125 199.226562 C 163.890625 198.535156 164.636719 197.910156 165.441406 197.351562 C 166.242188 196.792969 167.089844 196.3125 167.980469 195.90625 C 168.871094 195.503906 169.789062 195.179688 170.738281 194.941406 L 192.5625 189.496094 L 196.417969 162.125 L 182.734375 162.125 C 181.9375 162.125 181.144531 162.085938 180.355469 162.007812 C 179.566406 161.929688 178.78125 161.8125 178 161.660156 C 177.222656 161.503906 176.453125 161.3125 175.691406 161.082031 C 174.933594 160.851562 174.1875 160.582031 173.453125 160.277344 C 172.71875 159.976562 172 159.636719 171.300781 159.261719 C 170.601562 158.886719 169.921875 158.480469 169.261719 158.039062 C 168.601562 157.597656 167.960938 157.125 167.347656 156.621094 C 166.734375 156.117188 166.148438 155.582031 165.585938 155.023438 C 165.023438 154.460938 164.492188 153.871094 163.988281 153.257812 C 163.484375 152.644531 163.011719 152.007812 162.570312 151.347656 C 162.128906 150.6875 161.71875 150.007812 161.347656 149.304688 C 160.972656 148.605469 160.632812 147.890625 160.328125 147.15625 C 160.023438 146.421875 159.757812 145.675781 159.527344 144.914062 C 159.296875 144.15625 159.105469 143.386719 158.949219 142.605469 C 158.792969 141.828125 158.675781 141.042969 158.597656 140.25 C 158.523438 139.460938 158.484375 138.667969 158.484375 137.875 L 158.484375 89.375 C 158.484375 88.582031 158.523438 87.789062 158.597656 86.996094 C 158.675781 86.207031 158.792969 85.421875 158.949219 84.644531 C 159.105469 83.863281 159.296875 83.09375 159.527344 82.335938 C 159.757812 81.574219 160.023438 80.828125 160.328125 80.09375 C 160.632812 79.359375 160.972656 78.644531 161.347656 77.945312 C 161.71875 77.242188 162.128906 76.5625 162.570312 75.902344 C 163.011719 75.242188 163.484375 74.605469 163.988281 73.992188 C 164.492188 73.378906 165.023438 72.789062 165.585938 72.226562 C 166.148438 71.664062 166.734375 71.132812 167.347656 70.628906 C 167.960938 70.125 168.601562 69.652344 169.261719 69.210938 C 169.921875 68.769531 170.601562 68.363281 171.300781 67.988281 C 172 67.613281 172.71875 67.273438 173.453125 66.972656 C 174.1875 66.667969 174.933594 66.398438 175.691406 66.167969 C 176.453125 65.9375 177.222656 65.746094 178 65.589844 C 178.78125 65.4375 179.566406 65.320312 180.355469 65.242188 C 181.144531 65.164062 181.9375 65.125 182.734375 65.125 L 223.148438 65.125 C 223.679688 65.125 224.207031 65.152344 224.734375 65.203125 C 225.261719 65.253906 225.785156 65.332031 226.304688 65.4375 C 226.824219 65.539062 227.335938 65.667969 227.84375 65.820312 C 228.347656 65.976562 228.847656 66.152344 229.335938 66.355469 C 229.824219 66.558594 230.304688 66.785156 230.769531 67.035156 C 231.238281 67.285156 231.691406 67.554688 232.132812 67.847656 C 232.570312 68.144531 232.996094 68.457031 233.40625 68.792969 C 233.816406 69.128906 234.207031 69.484375 234.582031 69.859375 C 234.957031 70.234375 235.308594 70.625 235.644531 71.035156 C 235.980469 71.445312 236.296875 71.871094 236.589844 72.308594 C 236.886719 72.75 237.15625 73.203125 237.40625 73.671875 C 237.65625 74.136719 237.882812 74.617188 238.085938 75.105469 C 238.289062 75.59375 238.464844 76.09375 238.621094 76.597656 C 238.773438 77.105469 238.902344 77.617188 239.003906 78.136719 C 239.109375 78.65625 239.1875 79.179688 239.238281 79.707031 C 239.289062 80.234375 239.316406 80.761719 239.316406 81.292969 C 239.316406 81.820312 239.289062 82.347656 239.238281 82.875 C 239.1875 83.402344 239.109375 83.925781 239.003906 84.445312 C 238.902344 84.964844 238.773438 85.476562 238.621094 85.984375 C 238.464844 86.492188 238.289062 86.988281 238.085938 87.476562 C 237.882812 87.96875 237.65625 88.445312 237.40625 88.914062 C 237.15625 89.378906 236.886719 89.832031 236.589844 90.273438 C 236.296875 90.714844 235.980469 91.136719 235.644531 91.546875 C 235.308594 91.957031 234.957031 92.347656 234.582031 92.722656 C 234.207031 93.097656 233.816406 93.453125 233.40625 93.789062 C 232.996094 94.125 232.570312 94.441406 232.132812 94.734375 C 231.691406 95.027344 231.238281 95.300781 230.769531 95.550781 C 230.304688 95.800781 229.824219 96.023438 229.335938 96.226562 C 228.847656 96.429688 228.347656 96.609375 227.84375 96.761719 C 227.335938 96.914062 226.824219 97.042969 226.304688 97.148438 C 225.785156 97.25 225.261719 97.328125 224.734375 97.378906 C 224.207031 97.433594 223.679688 97.457031 223.148438 97.457031 L 190.816406 97.457031 L 190.816406 129.792969 L 205.738281 129.792969 C 206.53125 129.792969 207.324219 129.832031 208.113281 129.910156 C 208.90625 129.984375 209.691406 130.101562 210.46875 130.257812 C 211.246094 130.414062 212.015625 130.605469 212.777344 130.835938 C 213.539062 131.066406 214.285156 131.332031 215.019531 131.636719 C 215.75 131.941406 216.46875 132.28125 217.167969 132.65625 C 217.871094 133.03125 218.550781 133.4375 219.210938 133.878906 C 219.871094 134.320312 220.507812 134.792969 221.121094 135.296875 C 221.734375 135.800781 222.324219 136.332031 222.886719 136.894531 C 223.445312 137.457031 223.980469 138.042969 224.484375 138.65625 C 224.988281 139.273438 225.460938 139.910156 225.902344 140.570312 C 226.34375 141.230469 226.75 141.910156 227.125 142.609375 C 227.5 143.3125 227.839844 144.027344 228.140625 144.761719 C 228.445312 145.496094 228.714844 146.242188 228.945312 147.003906 C 229.175781 147.761719 229.367188 148.53125 229.523438 149.3125 C 229.675781 150.089844 229.792969 150.875 229.871094 151.664062 C 229.949219 152.457031 229.988281 153.246094 229.988281 154.042969 C 229.988281 155.210938 229.902344 156.375 229.730469 157.535156 L 222.988281 204.820312 C 222.875 205.613281 222.703125 206.390625 222.476562 207.15625 C 222.246094 207.921875 221.964844 208.667969 221.625 209.390625 C 221.285156 210.117188 220.898438 210.808594 220.453125 211.476562 C 220.011719 212.140625 219.523438 212.773438 218.988281 213.367188 C 218.453125 213.957031 217.878906 214.507812 217.261719 215.019531 C 216.644531 215.527344 215.992188 215.984375 215.308594 216.398438 C 214.625 216.808594 213.910156 217.167969 213.171875 217.472656 C 212.433594 217.78125 211.679688 218.03125 210.902344 218.222656 L 178.570312 226.308594 C 177.28125 226.628906 175.976562 226.792969 174.648438 226.792969 Z M 197.742188 152.894531 Z M 197.742188 152.894531 " fill-opacity="1" fill-rule="nonzero"/></svg>