<svg xmlns="http://www.w3.org/2000/svg" xmlns:xlink="http://www.w3.org/1999/xlink" width="400" zoomAndPan="magnify" viewBox="0 0 300 299.999988" height="400" preserveAspectRatio="xMidYMid meet" version="1.0"><defs><clipPath id="a0d81b944f"><path d="M 2.234375 90 L 165 90 L 165 239 L 2.234375 239 Z M 2.234375 90 " clip-rule="nonzero"/></clipPath><clipPath id="fec1050cfe"><path d="M 135 61 L 297.734375 61 L 297.734375 210 L 135 210 Z M 135 61 " clip-rule="nonzero"/></clipPath><clipPath id="a07404498b"><path d="M 76 2.234375 L 224 2.234375 L 224 297.734375 L 76 297.734375 Z M 76 2.234375 " clip-rule="nonzero"/></clipPath></defs><g clip-path="url(#a0d81b944f)"><path fill="#e9ff9a" d="M 90.890625 238.652344 L 46.5625 238.652344 C 45.109375 238.652344 43.664062 238.578125 42.21875 238.433594 C 40.773438 238.292969 39.339844 238.078125 37.917969 237.792969 C 36.492188 237.507812 35.085938 237.15625 33.699219 236.734375 C 32.308594 236.3125 30.945312 235.820312 29.605469 235.265625 C 28.265625 234.710938 26.953125 234.089844 25.675781 233.40625 C 24.394531 232.71875 23.152344 231.976562 21.945312 231.167969 C 20.738281 230.363281 19.574219 229.496094 18.453125 228.578125 C 17.332031 227.65625 16.257812 226.683594 15.230469 225.65625 C 14.203125 224.628906 13.230469 223.554688 12.308594 222.433594 C 11.386719 221.3125 10.523438 220.148438 9.71875 218.941406 C 8.910156 217.734375 8.164062 216.492188 7.480469 215.210938 C 6.796875 213.929688 6.175781 212.621094 5.621094 211.28125 C 5.0625 209.941406 4.574219 208.574219 4.152344 207.1875 C 3.730469 205.796875 3.375 204.390625 3.09375 202.96875 C 2.808594 201.546875 2.59375 200.113281 2.449219 198.667969 C 2.308594 197.222656 2.234375 195.773438 2.234375 194.324219 L 2.234375 135.21875 C 2.234375 133.769531 2.308594 132.320312 2.449219 130.875 C 2.59375 129.429688 2.808594 127.996094 3.09375 126.574219 C 3.375 125.152344 3.730469 123.746094 4.152344 122.355469 C 4.574219 120.96875 5.0625 119.601562 5.621094 118.261719 C 6.175781 116.921875 6.796875 115.609375 7.480469 114.332031 C 8.164062 113.050781 8.910156 111.808594 9.71875 110.601562 C 10.523438 109.394531 11.386719 108.230469 12.308594 107.109375 C 13.230469 105.988281 14.203125 104.914062 15.230469 103.886719 C 16.257812 102.859375 17.332031 101.886719 18.453125 100.964844 C 19.574219 100.046875 20.738281 99.179688 21.945312 98.375 C 23.152344 97.566406 24.394531 96.824219 25.675781 96.136719 C 26.953125 95.453125 28.265625 94.832031 29.605469 94.277344 C 30.945312 93.71875 32.308594 93.230469 33.699219 92.808594 C 35.085938 92.386719 36.492188 92.035156 37.917969 91.75 C 39.339844 91.464844 40.773438 91.25 42.21875 91.109375 C 43.664062 90.964844 45.109375 90.890625 46.5625 90.890625 L 149.996094 90.890625 C 150.964844 90.890625 151.925781 90.984375 152.878906 91.175781 C 153.828125 91.363281 154.753906 91.644531 155.648438 92.015625 C 156.546875 92.386719 157.398438 92.839844 158.203125 93.378906 C 159.011719 93.917969 159.757812 94.53125 160.445312 95.21875 C 161.128906 95.90625 161.742188 96.652344 162.28125 97.457031 C 162.820312 98.265625 163.273438 99.117188 163.648438 100.011719 C 164.019531 100.910156 164.296875 101.832031 164.488281 102.785156 C 164.675781 103.734375 164.769531 104.695312 164.769531 105.667969 C 164.769531 106.636719 164.675781 107.597656 164.488281 108.550781 C 164.296875 109.5 164.019531 110.425781 163.648438 111.320312 C 163.273438 112.21875 162.820312 113.070312 162.28125 113.875 C 161.742188 114.683594 161.128906 115.429688 160.445312 116.113281 C 159.757812 116.800781 159.011719 117.414062 158.203125 117.953125 C 157.398438 118.492188 156.546875 118.945312 155.648438 119.316406 C 154.753906 119.6875 153.828125 119.96875 152.878906 120.160156 C 151.925781 120.347656 150.964844 120.441406 149.996094 120.441406 L 46.5625 120.441406 C 45.59375 120.441406 44.632812 120.539062 43.679688 120.726562 C 42.726562 120.917969 41.804688 121.195312 40.90625 121.566406 C 40.011719 121.9375 39.160156 122.394531 38.351562 122.933594 C 37.546875 123.472656 36.800781 124.085938 36.113281 124.769531 C 35.425781 125.457031 34.816406 126.203125 34.277344 127.011719 C 33.738281 127.816406 33.28125 128.667969 32.910156 129.566406 C 32.539062 130.460938 32.257812 131.386719 32.070312 132.335938 C 31.878906 133.289062 31.785156 134.25 31.785156 135.21875 L 31.785156 194.324219 C 31.785156 195.292969 31.878906 196.253906 32.070312 197.207031 C 32.257812 198.15625 32.539062 199.082031 32.910156 199.976562 C 33.28125 200.875 33.738281 201.726562 34.277344 202.53125 C 34.816406 203.339844 35.425781 204.085938 36.113281 204.773438 C 36.800781 205.457031 37.546875 206.070312 38.351562 206.609375 C 39.160156 207.148438 40.011719 207.605469 40.90625 207.976562 C 41.804688 208.347656 42.726562 208.625 43.679688 208.816406 C 44.632812 209.003906 45.59375 209.101562 46.5625 209.101562 L 90.890625 209.101562 C 91.859375 209.101562 92.820312 209.195312 93.773438 209.382812 C 94.726562 209.574219 95.648438 209.851562 96.546875 210.226562 C 97.441406 210.597656 98.292969 211.050781 99.101562 211.589844 C 99.90625 212.128906 100.652344 212.742188 101.339844 213.429688 C 102.023438 214.113281 102.636719 214.859375 103.175781 215.667969 C 103.714844 216.472656 104.171875 217.324219 104.542969 218.222656 C 104.914062 219.117188 105.195312 220.042969 105.382812 220.992188 C 105.570312 221.945312 105.667969 222.90625 105.667969 223.875 C 105.667969 224.847656 105.570312 225.808594 105.382812 226.757812 C 105.195312 227.710938 104.914062 228.632812 104.542969 229.53125 C 104.171875 230.425781 103.714844 231.277344 103.175781 232.085938 C 102.636719 232.890625 102.023438 233.636719 101.339844 234.324219 C 100.652344 235.011719 99.90625 235.621094 99.101562 236.160156 C 98.292969 236.699219 97.441406 237.15625 96.546875 237.527344 C 95.648438 237.898438 94.726562 238.179688 93.773438 238.367188 C 92.820312 238.558594 91.859375 238.652344 90.890625 238.652344 Z M 90.890625 238.652344 " fill-opacity="1" fill-rule="nonzero"/></g><g clip-path="url(#fec1050cfe)"><path fill="#e9ff9a" d="M 253.429688 209.101562 L 149.996094 209.101562 C 149.023438 209.101562 148.0625 209.003906 147.113281 208.816406 C 146.160156 208.625 145.238281 208.347656 144.339844 207.976562 C 143.445312 207.605469 142.59375 207.148438 141.785156 206.609375 C 140.980469 206.070312 140.234375 205.457031 139.546875 204.773438 C 138.859375 204.085938 138.25 203.339844 137.710938 202.53125 C 137.171875 201.726562 136.714844 200.875 136.34375 199.976562 C 135.972656 199.082031 135.691406 198.15625 135.503906 197.207031 C 135.3125 196.253906 135.21875 195.292969 135.21875 194.324219 C 135.21875 193.355469 135.3125 192.394531 135.503906 191.441406 C 135.691406 190.488281 135.972656 189.566406 136.34375 188.667969 C 136.714844 187.773438 137.171875 186.921875 137.710938 186.113281 C 138.25 185.308594 138.859375 184.5625 139.546875 183.875 C 140.234375 183.1875 140.980469 182.578125 141.785156 182.039062 C 142.59375 181.5 143.445312 181.042969 144.339844 180.671875 C 145.238281 180.300781 146.160156 180.019531 147.113281 179.832031 C 148.0625 179.640625 149.023438 179.546875 149.996094 179.546875 L 253.429688 179.546875 C 254.398438 179.546875 255.359375 179.453125 256.3125 179.261719 C 257.261719 179.074219 258.1875 178.792969 259.082031 178.421875 C 259.980469 178.050781 260.832031 177.597656 261.636719 177.058594 C 262.445312 176.519531 263.191406 175.90625 263.875 175.21875 C 264.5625 174.535156 265.175781 173.789062 265.714844 172.980469 C 266.253906 172.175781 266.707031 171.324219 267.078125 170.425781 C 267.449219 169.53125 267.730469 168.605469 267.921875 167.652344 C 268.109375 166.703125 268.203125 165.742188 268.203125 164.769531 L 268.203125 105.667969 C 268.203125 104.695312 268.109375 103.734375 267.921875 102.785156 C 267.730469 101.832031 267.449219 100.910156 267.078125 100.011719 C 266.707031 99.117188 266.253906 98.265625 265.714844 97.457031 C 265.175781 96.652344 264.5625 95.90625 263.875 95.21875 C 263.191406 94.53125 262.445312 93.917969 261.636719 93.378906 C 260.832031 92.839844 259.980469 92.386719 259.082031 92.015625 C 258.1875 91.644531 257.261719 91.363281 256.3125 91.175781 C 255.359375 90.984375 254.398438 90.890625 253.429688 90.890625 L 209.101562 90.890625 C 208.128906 90.890625 207.167969 90.796875 206.21875 90.605469 C 205.265625 90.417969 204.339844 90.136719 203.445312 89.765625 C 202.550781 89.394531 201.699219 88.9375 200.890625 88.398438 C 200.085938 87.859375 199.335938 87.25 198.652344 86.5625 C 197.964844 85.875 197.351562 85.128906 196.8125 84.324219 C 196.273438 83.515625 195.820312 82.664062 195.449219 81.769531 C 195.078125 80.871094 194.796875 79.949219 194.609375 78.996094 C 194.417969 78.046875 194.324219 77.085938 194.324219 76.113281 C 194.324219 75.144531 194.417969 74.183594 194.609375 73.230469 C 194.796875 72.28125 195.078125 71.355469 195.449219 70.460938 C 195.820312 69.5625 196.273438 68.710938 196.8125 67.90625 C 197.351562 67.097656 197.964844 66.351562 198.652344 65.667969 C 199.335938 64.980469 200.085938 64.367188 200.890625 63.828125 C 201.699219 63.289062 202.550781 62.835938 203.445312 62.464844 C 204.339844 62.089844 205.265625 61.8125 206.21875 61.621094 C 207.167969 61.433594 208.128906 61.339844 209.101562 61.339844 L 253.429688 61.339844 C 254.878906 61.339844 256.328125 61.414062 257.773438 61.554688 C 259.214844 61.699219 260.648438 61.914062 262.074219 62.199219 C 263.496094 62.480469 264.902344 62.835938 266.292969 63.257812 C 267.679688 63.679688 269.042969 64.167969 270.386719 64.722656 C 271.726562 65.28125 273.035156 65.902344 274.316406 66.585938 C 275.597656 67.269531 276.839844 68.015625 278.046875 68.824219 C 279.253906 69.628906 280.417969 70.492188 281.539062 71.414062 C 282.660156 72.335938 283.734375 73.308594 284.761719 74.335938 C 285.785156 75.359375 286.761719 76.433594 287.679688 77.558594 C 288.601562 78.679688 289.464844 79.84375 290.273438 81.050781 C 291.078125 82.257812 291.824219 83.5 292.507812 84.777344 C 293.195312 86.058594 293.816406 87.371094 294.371094 88.710938 C 294.925781 90.050781 295.417969 91.414062 295.839844 92.804688 C 296.261719 94.191406 296.613281 95.597656 296.898438 97.023438 C 297.183594 98.445312 297.394531 99.878906 297.539062 101.324219 C 297.683594 102.765625 297.753906 104.214844 297.757812 105.667969 L 297.757812 164.769531 C 297.753906 166.222656 297.683594 167.671875 297.539062 169.113281 C 297.394531 170.558594 297.183594 171.992188 296.898438 173.417969 C 296.613281 174.839844 296.261719 176.246094 295.839844 177.632812 C 295.417969 179.023438 294.925781 180.386719 294.371094 181.726562 C 293.816406 183.070312 293.195312 184.378906 292.507812 185.660156 C 291.824219 186.9375 291.078125 188.183594 290.273438 189.386719 C 289.464844 190.59375 288.601562 191.757812 287.679688 192.882812 C 286.761719 194.003906 285.785156 195.078125 284.761719 196.101562 C 283.734375 197.128906 282.660156 198.101562 281.539062 199.023438 C 280.417969 199.945312 279.253906 200.808594 278.046875 201.617188 C 276.839844 202.421875 275.597656 203.167969 274.316406 203.851562 C 273.035156 204.539062 271.726562 205.15625 270.386719 205.714844 C 269.042969 206.269531 267.679688 206.757812 266.292969 207.179688 C 264.902344 207.601562 263.496094 207.957031 262.074219 208.242188 C 260.648438 208.523438 259.214844 208.738281 257.773438 208.882812 C 256.328125 209.027344 254.878906 209.097656 253.429688 209.101562 Z M 253.429688 209.101562 " fill-opacity="1" fill-rule="nonzero"/></g><g clip-path="url(#a07404498b)"><path fill="#e9ff9a" d="M 179.546875 297.757812 L 120.441406 297.757812 C 118.992188 297.753906 117.542969 297.683594 116.097656 297.539062 C 114.65625 297.394531 113.222656 297.183594 111.796875 296.898438 C 110.375 296.613281 108.96875 296.261719 107.578125 295.839844 C 106.191406 295.417969 104.828125 294.925781 103.484375 294.371094 C 102.144531 293.816406 100.835938 293.195312 99.554688 292.507812 C 98.277344 291.824219 97.03125 291.078125 95.824219 290.273438 C 94.621094 289.464844 93.453125 288.601562 92.332031 287.679688 C 91.210938 286.761719 90.136719 285.785156 89.109375 284.761719 C 88.085938 283.734375 87.109375 282.660156 86.191406 281.539062 C 85.269531 280.417969 84.40625 279.253906 83.597656 278.046875 C 82.792969 276.839844 82.046875 275.597656 81.363281 274.316406 C 80.675781 273.035156 80.054688 271.726562 79.5 270.386719 C 78.945312 269.042969 78.457031 267.679688 78.03125 266.292969 C 77.609375 264.902344 77.257812 263.496094 76.972656 262.074219 C 76.6875 260.648438 76.476562 259.214844 76.332031 257.773438 C 76.1875 256.328125 76.117188 254.878906 76.113281 253.429688 L 76.113281 179.546875 C 76.117188 178.097656 76.1875 176.648438 76.332031 175.203125 C 76.476562 173.757812 76.6875 172.324219 76.972656 170.902344 C 77.257812 169.480469 77.609375 168.074219 78.03125 166.683594 C 78.457031 165.296875 78.945312 163.929688 79.5 162.589844 C 80.058594 161.25 80.675781 159.941406 81.363281 158.660156 C 82.046875 157.378906 82.792969 156.136719 83.597656 154.929688 C 84.40625 153.722656 85.269531 152.558594 86.191406 151.4375 C 87.109375 150.316406 88.085938 149.242188 89.109375 148.214844 C 90.136719 147.1875 91.210938 146.214844 92.332031 145.292969 C 93.453125 144.375 94.621094 143.511719 95.824219 142.703125 C 97.03125 141.898438 98.277344 141.152344 99.554688 140.464844 C 100.835938 139.78125 102.144531 139.160156 103.484375 138.605469 C 104.828125 138.050781 106.191406 137.558594 107.578125 137.136719 C 108.96875 136.714844 110.375 136.363281 111.796875 136.078125 C 113.222656 135.792969 114.65625 135.578125 116.097656 135.4375 C 117.542969 135.292969 118.992188 135.21875 120.441406 135.21875 L 179.546875 135.21875 C 180.519531 135.21875 181.480469 135.125 182.429688 134.933594 C 183.382812 134.746094 184.304688 134.464844 185.203125 134.09375 C 186.097656 133.722656 186.949219 133.269531 187.757812 132.730469 C 188.5625 132.191406 189.308594 131.578125 189.996094 130.890625 C 190.683594 130.207031 191.292969 129.457031 191.832031 128.652344 C 192.371094 127.84375 192.828125 126.992188 193.199219 126.097656 C 193.570312 125.199219 193.851562 124.277344 194.039062 123.324219 C 194.230469 122.375 194.324219 121.414062 194.324219 120.441406 L 194.324219 46.5625 C 194.324219 45.59375 194.230469 44.632812 194.039062 43.679688 C 193.851562 42.726562 193.570312 41.804688 193.199219 40.90625 C 192.828125 40.011719 192.371094 39.160156 191.832031 38.351562 C 191.292969 37.546875 190.683594 36.800781 189.996094 36.113281 C 189.308594 35.425781 188.5625 34.816406 187.757812 34.277344 C 186.949219 33.738281 186.097656 33.28125 185.203125 32.910156 C 184.304688 32.539062 183.382812 32.257812 182.429688 32.070312 C 181.480469 31.878906 180.519531 31.785156 179.546875 31.785156 L 120.441406 31.785156 C 119.472656 31.785156 118.511719 31.878906 117.558594 32.070312 C 116.609375 32.257812 115.683594 32.539062 114.789062 32.910156 C 113.890625 33.28125 113.039062 33.738281 112.234375 34.277344 C 111.425781 34.816406 110.679688 35.425781 109.996094 36.113281 C 109.308594 36.800781 108.695312 37.546875 108.15625 38.351562 C 107.617188 39.160156 107.164062 40.011719 106.792969 40.90625 C 106.421875 41.804688 106.140625 42.726562 105.949219 43.679688 C 105.761719 44.632812 105.667969 45.59375 105.667969 46.5625 L 105.667969 105.667969 C 105.667969 106.636719 105.570312 107.597656 105.382812 108.550781 C 105.195312 109.5 104.914062 110.425781 104.542969 111.320312 C 104.171875 112.21875 103.714844 113.070312 103.175781 113.875 C 102.636719 114.683594 102.023438 115.429688 101.339844 116.113281 C 100.652344 116.800781 99.90625 117.414062 99.101562 117.953125 C 98.292969 118.492188 97.441406 118.945312 96.546875 119.316406 C 95.648438 119.6875 94.726562 119.96875 93.773438 120.160156 C 92.820312 120.347656 91.859375 120.441406 90.890625 120.441406 C 89.921875 120.441406 88.960938 120.347656 88.007812 120.160156 C 87.054688 119.96875 86.132812 119.6875 85.234375 119.316406 C 84.339844 118.945312 83.488281 118.492188 82.679688 117.953125 C 81.875 117.414062 81.128906 116.800781 80.441406 116.113281 C 79.757812 115.429688 79.144531 114.683594 78.605469 113.875 C 78.066406 113.070312 77.609375 112.21875 77.238281 111.320312 C 76.867188 110.425781 76.585938 109.5 76.398438 108.550781 C 76.210938 107.597656 76.113281 106.636719 76.113281 105.667969 L 76.113281 46.5625 C 76.117188 45.109375 76.1875 43.664062 76.332031 42.21875 C 76.476562 40.773438 76.6875 39.339844 76.972656 37.917969 C 77.257812 36.492188 77.609375 35.085938 78.03125 33.699219 C 78.457031 32.308594 78.945312 30.945312 79.5 29.605469 C 80.054688 28.265625 80.675781 26.953125 81.363281 25.675781 C 82.046875 24.394531 82.792969 23.152344 83.597656 21.945312 C 84.40625 20.738281 85.269531 19.574219 86.191406 18.453125 C 87.109375 17.332031 88.085938 16.257812 89.109375 15.230469 C 90.136719 14.203125 91.210938 13.230469 92.332031 12.308594 C 93.453125 11.386719 94.621094 10.523438 95.824219 9.71875 C 97.03125 8.910156 98.277344 8.164062 99.554688 7.480469 C 100.835938 6.796875 102.144531 6.175781 103.484375 5.621094 C 104.828125 5.0625 106.191406 4.574219 107.578125 4.152344 C 108.96875 3.730469 110.375 3.375 111.796875 3.09375 C 113.222656 2.808594 114.65625 2.59375 116.097656 2.449219 C 117.542969 2.308594 118.992188 2.234375 120.441406 2.234375 L 179.546875 2.234375 C 181 2.234375 182.445312 2.308594 183.890625 2.449219 C 185.335938 2.59375 186.769531 2.808594 188.191406 3.09375 C 189.617188 3.375 191.023438 3.730469 192.410156 4.152344 C 193.800781 4.574219 195.164062 5.0625 196.503906 5.621094 C 197.84375 6.175781 199.15625 6.796875 200.433594 7.480469 C 201.714844 8.164062 202.957031 8.910156 204.164062 9.71875 C 205.371094 10.523438 206.535156 11.386719 207.65625 12.308594 C 208.777344 13.230469 209.851562 14.203125 210.878906 15.230469 C 211.90625 16.257812 212.878906 17.332031 213.800781 18.453125 C 214.722656 19.574219 215.585938 20.738281 216.390625 21.945312 C 217.199219 23.152344 217.945312 24.394531 218.628906 25.675781 C 219.3125 26.953125 219.933594 28.265625 220.488281 29.605469 C 221.046875 30.945312 221.535156 32.308594 221.957031 33.699219 C 222.378906 35.085938 222.734375 36.492188 223.015625 37.917969 C 223.300781 39.339844 223.515625 40.773438 223.660156 42.21875 C 223.800781 43.664062 223.875 45.109375 223.875 46.5625 L 223.875 120.441406 C 223.875 121.894531 223.800781 123.34375 223.660156 124.785156 C 223.515625 126.230469 223.300781 127.664062 223.015625 129.085938 C 222.734375 130.511719 222.378906 131.917969 221.957031 133.304688 C 221.535156 134.695312 221.046875 136.058594 220.488281 137.398438 C 219.933594 138.742188 219.3125 140.050781 218.628906 141.332031 C 217.945312 142.609375 217.199219 143.851562 216.390625 145.058594 C 215.585938 146.265625 214.722656 147.429688 213.800781 148.550781 C 212.878906 149.675781 211.90625 150.75 210.878906 151.773438 C 209.851562 152.800781 208.777344 153.773438 207.65625 154.695312 C 206.535156 155.617188 205.371094 156.480469 204.164062 157.285156 C 202.957031 158.09375 201.714844 158.839844 200.433594 159.523438 C 199.15625 160.207031 197.84375 160.828125 196.503906 161.386719 C 195.164062 161.941406 193.800781 162.429688 192.410156 162.851562 C 191.023438 163.273438 189.617188 163.628906 188.191406 163.914062 C 186.769531 164.195312 185.335938 164.410156 183.890625 164.554688 C 182.445312 164.699219 181 164.769531 179.546875 164.769531 L 120.441406 164.769531 C 119.472656 164.769531 118.511719 164.867188 117.558594 165.054688 C 116.609375 165.246094 115.683594 165.523438 114.789062 165.894531 C 113.890625 166.265625 113.039062 166.722656 112.234375 167.261719 C 111.425781 167.800781 110.679688 168.414062 109.996094 169.097656 C 109.308594 169.785156 108.695312 170.53125 108.15625 171.339844 C 107.617188 172.144531 107.164062 172.996094 106.792969 173.894531 C 106.421875 174.789062 106.140625 175.714844 105.949219 176.664062 C 105.761719 177.617188 105.667969 178.578125 105.667969 179.546875 L 105.667969 253.429688 C 105.667969 254.398438 105.761719 255.359375 105.949219 256.3125 C 106.140625 257.261719 106.421875 258.1875 106.792969 259.082031 C 107.164062 259.980469 107.617188 260.832031 108.15625 261.636719 C 108.695312 262.445312 109.308594 263.191406 109.996094 263.875 C 110.679688 264.5625 111.425781 265.175781 112.234375 265.714844 C 113.039062 266.253906 113.890625 266.707031 114.789062 267.078125 C 115.683594 267.449219 116.609375 267.730469 117.558594 267.921875 C 118.511719 268.109375 119.472656 268.203125 120.441406 268.203125 L 179.546875 268.203125 C 180.519531 268.203125 181.480469 268.109375 182.429688 267.921875 C 183.382812 267.730469 184.304688 267.449219 185.203125 267.078125 C 186.097656 266.707031 186.949219 266.253906 187.757812 265.714844 C 188.5625 265.175781 189.308594 264.5625 189.996094 263.875 C 190.683594 263.191406 191.292969 262.445312 191.832031 261.636719 C 192.371094 260.832031 192.828125 259.980469 193.199219 259.082031 C 193.570312 258.1875 193.851562 257.261719 194.039062 256.3125 C 194.230469 255.359375 194.324219 254.398438 194.324219 253.429688 L 194.324219 194.324219 C 194.324219 193.355469 194.417969 192.394531 194.609375 191.441406 C 194.796875 190.488281 195.078125 189.566406 195.449219 188.667969 C 195.820312 187.773438 196.273438 186.921875 196.8125 186.113281 C 197.351562 185.308594 197.964844 184.5625 198.652344 183.875 C 199.335938 183.1875 200.085938 182.578125 200.890625 182.039062 C 201.699219 181.5 202.550781 181.042969 203.445312 180.671875 C 204.339844 180.300781 205.265625 180.019531 206.21875 179.832031 C 207.167969 179.640625 208.128906 179.546875 209.101562 179.546875 C 210.070312 179.546875 211.03125 179.640625 211.984375 179.832031 C 212.933594 180.019531 213.859375 180.300781 214.753906 180.671875 C 215.652344 181.042969 216.503906 181.5 217.308594 182.039062 C 218.117188 182.578125 218.863281 183.1875 219.546875 183.875 C 220.234375 184.5625 220.847656 185.308594 221.386719 186.113281 C 221.925781 186.921875 222.378906 187.773438 222.75 188.667969 C 223.121094 189.566406 223.402344 190.488281 223.59375 191.441406 C 223.78125 192.394531 223.875 193.355469 223.875 194.324219 L 223.875 253.429688 C 223.875 254.878906 223.800781 256.328125 223.660156 257.773438 C 223.515625 259.214844 223.300781 260.648438 223.015625 262.074219 C 222.734375 263.496094 222.378906 264.902344 221.957031 266.292969 C 221.535156 267.679688 221.046875 269.042969 220.488281 270.386719 C 219.933594 271.726562 219.3125 273.035156 218.628906 274.316406 C 217.945312 275.597656 217.199219 276.839844 216.390625 278.046875 C 215.585938 279.253906 214.722656 280.417969 213.800781 281.539062 C 212.878906 282.660156 211.90625 283.734375 210.878906 284.761719 C 209.851562 285.785156 208.777344 286.761719 207.65625 287.679688 C 206.535156 288.601562 205.371094 289.464844 204.164062 290.273438 C 202.957031 291.078125 201.714844 291.824219 200.433594 292.507812 C 199.15625 293.195312 197.84375 293.816406 196.503906 294.371094 C 195.164062 294.925781 193.800781 295.417969 192.410156 295.839844 C 191.023438 296.261719 189.617188 296.613281 188.191406 296.898438 C 186.769531 297.183594 185.335938 297.394531 183.890625 297.539062 C 182.445312 297.683594 181 297.753906 179.546875 297.757812 Z M 179.546875 297.757812 " fill-opacity="1" fill-rule="nonzero"/></g><path fill="#e9ff9a" d="M 135.21875 76.261719 C 134.246094 76.265625 133.285156 76.171875 132.332031 75.984375 C 131.378906 75.796875 130.453125 75.519531 129.554688 75.152344 C 128.65625 74.78125 127.800781 74.328125 126.992188 73.792969 C 126.179688 73.253906 125.433594 72.644531 124.742188 71.957031 C 124.054688 71.273438 123.4375 70.527344 122.894531 69.722656 C 122.351562 68.917969 121.894531 68.066406 121.519531 67.167969 C 121.144531 66.273438 120.859375 65.347656 120.664062 64.394531 C 120.472656 63.445312 120.375 62.480469 120.371094 61.511719 C 120.367188 60.539062 120.457031 59.574219 120.640625 58.621094 C 120.828125 57.667969 121.105469 56.742188 121.472656 55.84375 C 121.839844 54.945312 122.289062 54.089844 122.828125 53.277344 C 123.363281 52.46875 123.972656 51.71875 124.65625 51.027344 C 125.339844 50.335938 126.085938 49.71875 126.890625 49.175781 C 127.695312 48.632812 128.542969 48.171875 129.441406 47.792969 C 130.335938 47.417969 131.257812 47.132812 132.210938 46.9375 C 133.164062 46.742188 134.125 46.640625 135.097656 46.636719 C 136.066406 46.628906 137.03125 46.71875 137.984375 46.902344 C 138.9375 47.085938 139.867188 47.363281 140.765625 47.726562 C 141.664062 48.09375 142.519531 48.546875 143.332031 49.078125 C 144.144531 49.613281 144.894531 50.222656 145.585938 50.90625 C 146.277344 51.585938 146.898438 52.332031 147.441406 53.136719 C 147.988281 53.9375 148.449219 54.789062 148.828125 55.683594 C 149.207031 56.578125 149.492188 57.503906 149.691406 58.453125 C 149.886719 59.40625 149.988281 60.367188 149.996094 61.339844 L 149.996094 61.484375 C 149.996094 62.457031 149.902344 63.417969 149.710938 64.367188 C 149.523438 65.320312 149.242188 66.246094 148.871094 67.140625 C 148.5 68.035156 148.042969 68.886719 147.503906 69.695312 C 146.964844 70.5 146.351562 71.25 145.667969 71.933594 C 144.980469 72.621094 144.234375 73.234375 143.429688 73.773438 C 142.621094 74.3125 141.769531 74.765625 140.875 75.136719 C 139.976562 75.507812 139.054688 75.789062 138.101562 75.976562 C 137.148438 76.167969 136.1875 76.261719 135.21875 76.261719 Z M 135.21875 76.261719 " fill-opacity="1" fill-rule="nonzero"/><path fill="#e9ff9a" d="M 164.769531 253.578125 C 163.800781 253.578125 162.835938 253.484375 161.882812 253.300781 C 160.929688 253.113281 160.003906 252.835938 159.105469 252.464844 C 158.207031 252.097656 157.351562 251.640625 156.542969 251.105469 C 155.734375 250.566406 154.984375 249.957031 154.296875 249.273438 C 153.605469 248.585938 152.988281 247.84375 152.445312 247.035156 C 151.90625 246.230469 151.445312 245.378906 151.070312 244.484375 C 150.695312 243.585938 150.410156 242.664062 150.21875 241.710938 C 150.023438 240.757812 149.925781 239.796875 149.921875 238.824219 C 149.917969 237.851562 150.007812 236.890625 150.195312 235.9375 C 150.378906 234.984375 150.65625 234.054688 151.023438 233.15625 C 151.390625 232.257812 151.84375 231.402344 152.378906 230.59375 C 152.914062 229.78125 153.523438 229.03125 154.207031 228.339844 C 154.890625 227.652344 155.636719 227.035156 156.441406 226.488281 C 157.246094 225.945312 158.097656 225.484375 158.992188 225.109375 C 159.886719 224.730469 160.8125 224.445312 161.761719 224.25 C 162.714844 224.054688 163.675781 223.957031 164.648438 223.949219 C 165.621094 223.945312 166.582031 224.035156 167.539062 224.21875 C 168.492188 224.402344 169.417969 224.675781 170.316406 225.042969 C 171.21875 225.410156 172.074219 225.859375 172.886719 226.394531 C 173.695312 226.929688 174.449219 227.535156 175.140625 228.21875 C 175.832031 228.902344 176.449219 229.644531 176.996094 230.449219 C 177.539062 231.253906 178 232.101562 178.378906 232.996094 C 178.757812 233.894531 179.046875 234.816406 179.242188 235.769531 C 179.4375 236.71875 179.539062 237.679688 179.546875 238.652344 L 179.546875 238.800781 C 179.546875 239.769531 179.453125 240.730469 179.261719 241.683594 C 179.074219 242.632812 178.792969 243.558594 178.421875 244.453125 C 178.050781 245.351562 177.597656 246.203125 177.058594 247.007812 C 176.519531 247.816406 175.90625 248.5625 175.21875 249.25 C 174.535156 249.933594 173.789062 250.546875 172.980469 251.085938 C 172.175781 251.625 171.324219 252.082031 170.425781 252.453125 C 169.53125 252.824219 168.605469 253.101562 167.652344 253.292969 C 166.703125 253.480469 165.742188 253.578125 164.769531 253.578125 Z M 164.769531 253.578125 " fill-opacity="1" fill-rule="nonzero"/></svg>